# xmcd
#
# Track frame offsets: 
#        150
#        18090
#        35952
#        58965
#        83645
#
# Disc length: 1400 seconds
#
# Revision: 0
# Processed by: cddbd v1.5.1PL0 Copyright (c) Steve Scherf et al.
# Submitted via: ExactAudioCopy v0.95b1
#
DISCID=3a057605
DTITLE=Gabrielle - I Wish (Promo CDS)
DYEAR=1994
DGENRE=Pop
TTITLE0=I Wish (Radio Mix Brooklyn Style)
TTITLE1=I Wish (Radio Mix)
TTITLE2=I Wish (Club Mix)
TTITLE3=I Wish (Club Mix Brooklyn Style)
TTITLE4=I Wish
EXTD=
EXTT0=
EXTT1=
EXTT2=
EXTT3=
EXTT4=
PLAYORDER=
